<?xml version="1.0" encoding="UTF-8" standalone="no"?>
<svg
   version="1.0"
   width="512pt"
   height="512pt"
   viewBox="0 0 512 512"
   preserveAspectRatio="xMidYMid meet"
   id="svg248"
   sodipodi:docname="tak.svg"
   inkscape:version="1.1.2 (b8e25be833, 2022-02-05)"
   xmlns:inkscape="http://www.inkscape.org/namespaces/inkscape"
   xmlns:sodipodi="http://sodipodi.sourceforge.net/DTD/sodipodi-0.dtd"
   xmlns="http://www.w3.org/2000/svg"
   xmlns:svg="http://www.w3.org/2000/svg">
  <defs
     id="defs252">
    <clipPath
       clipPathUnits="userSpaceOnUse"
       id="clipPath1983">
      <rect
         style="fill:#e5e5e5;fill-opacity:1;stroke-width:145.678"
         id="rect1985"
         width="7236.207"
         height="7236.207"
         x="0"
         y="-10240"
         transform="scale(1,-1)" />
    </clipPath>
  </defs>
  <sodipodi:namedview
     id="namedview250"
     pagecolor="#505050"
     bordercolor="#eeeeee"
     borderopacity="1"
     inkscape:pageshadow="0"
     inkscape:pageopacity="0"
     inkscape:pagecheckerboard="0"
     inkscape:document-units="pt"
     showgrid="false"
     inkscape:zoom="1"
     inkscape:cx="376.5"
     inkscape:cy="381.5"
     inkscape:window-width="1920"
     inkscape:window-height="1051"
     inkscape:window-x="-9"
     inkscape:window-y="-9"
     inkscape:window-maximized="1"
     inkscape:current-layer="svg248"
     width="512pt" />
  <g
     transform="matrix(0.06890636,0,0,-0.06890636,-11.257683,711.60113)"
     fill="#000000"
     stroke="none"
     id="g246"
     clip-path="url(#clipPath1983)"
     style="fill:#ffffff">
    <path
       d="m 2160,10183 c 83,-147 183,-270 289,-357 l 71,-58 -69,-77 c -177,-196 -300,-422 -346,-634 -21,-94 -18,-92 -189,-83 -164,9 -552,45 -598,55 -21,5 -38,5 -38,1 0,-14 141,-141 194,-175 74,-47 160,-81 241,-94 67,-11 281,-31 336,-31 19,0 30,-9 47,-42 18,-36 21,-38 15,-13 -3,17 -14,49 -25,73 -10,24 -18,68 -18,97 0,44 3,53 20,58 17,4 20,14 20,59 1,107 44,220 133,353 81,120 208,244 339,334 l 48,32 73,-56 c 41,-30 77,-55 80,-55 14,0 6,40 -14,74 -16,28 -19,45 -14,76 8,47 17,44 46,-12 24,-46 41,-40 43,14 l 1,33 75,-2 c 135,-3 260,-15 260,-24 0,-5 -15,-9 -32,-9 -100,-1 -288,-64 -306,-104 -9,-20 -24,-86 -36,-160 -3,-16 -7,-30 -9,-33 -5,-4 -86,95 -94,115 -8,19 -29,15 -77,-15 -152,-96 -322,-303 -429,-523 l -51,-105 -1,-155 c 0,-241 49,-532 132,-782 42,-126 63,-166 63,-121 0,9 8,25 18,36 10,12 19,43 23,81 4,46 7,56 14,41 5,-11 15,-31 24,-43 8,-13 16,-35 17,-48 2,-14 16,-87 33,-162 90,-410 128,-716 164,-1335 1,-17 6,-26 14,-23 6,3 0,-16 -14,-42 -14,-26 -44,-80 -65,-119 -27,-50 -45,-73 -58,-73 -12,0 -17,6 -14,18 7,24 -24,543 -32,551 -4,3 -4,-25 0,-64 3,-38 9,-170 13,-292 l 6,-223 h -62 c -34,0 -103,-9 -155,-20 -89,-19 -98,-20 -189,-5 -52,8 -115,22 -139,31 -74,26 -226,44 -413,50 -99,2 -198,6 -219,9 -27,2 -35,1 -25,-6 12,-7 11,-9 -3,-9 -10,0 -18,7 -18,15 0,12 -28,35 -44,35 -11,0 -6,-31 9,-60 13,-25 13,-29 0,-34 -8,-3 -15,-14 -15,-25 0,-11 35,-102 78,-203 l 79,-183 49,-25 c 27,-14 92,-45 143,-70 84,-39 99,-51 137,-103 l 44,-59 v -90 c 0,-76 -4,-96 -24,-131 -27,-47 -60,-147 -82,-250 -22,-106 -15,-102 15,8 15,55 39,129 52,165 l 24,65 7,-90 c 3,-49 9,-129 12,-177 l 7,-87 -47,-52 c -26,-29 -60,-74 -76,-99 l -30,-45 4,53 c 3,28 1,52 -2,52 -4,0 -10,-30 -14,-67 -6,-61 -2,-82 34,-202 l 41,-134 -38,-39 c -23,-24 -102,-73 -208,-129 -93,-50 -181,-101 -194,-112 -35,-32 -94,-164 -135,-301 -19,-65 -36,-120 -38,-121 -2,-2 -47,-11 -99,-19 -176,-28 -162,-17 -258,-206 l -83,-165 -7,-150 c -3,-82 -3,-208 0,-280 5,-119 9,-139 43,-230 47,-123 170,-376 268,-550 87,-155 153,-227 501,-548 l 228,-210 -55,-56 -55,-56 -86,-250 C 1398,838 1314,568 1259,375 1204,183 1157,19 1155,13 1152,3 1385,0 2303,0 h 1153 l -12,153 c -7,83 -17,195 -23,247 -6,52 -14,228 -16,390 -3,162 -7,316 -10,341 -3,40 -1,48 16,52 18,5 19,-1 19,-90 0,-52 4,-181 10,-286 5,-106 12,-300 15,-432 3,-132 11,-269 18,-305 L 3485,5 5363,2 7240,0 v 60 c 0,56 -5,69 -66,178 -37,64 -76,135 -87,156 l -21,39 22,56 c 11,31 46,117 76,191 31,74 56,149 56,165 0,67 -58,105 -161,105 -60,0 -61,1 -55,24 15,59 76,440 76,472 0,27 -8,44 -33,69 -32,32 -114,65 -164,65 -21,0 -23,4 -23,50 0,45 -3,52 -26,60 -14,6 -57,10 -95,10 h -69 l 29,40 c 36,50 85,166 101,242 11,49 19,61 52,84 55,38 247,241 254,268 8,32 -20,153 -59,253 -19,49 -41,113 -51,144 -10,35 -31,73 -56,102 -32,36 -43,59 -55,118 -15,69 -14,89 5,290 16,171 18,227 10,270 -21,101 -74,252 -131,367 l -57,115 79,165 c 44,91 82,182 85,203 6,33 2,42 -24,69 -17,16 -36,30 -42,30 -6,0 3,-12 20,-27 30,-25 32,-30 26,-76 -3,-33 -31,-100 -82,-203 l -76,-154 -44,49 c -54,60 -104,75 -204,61 -35,-5 -65,-8 -67,-7 -4,4 294,278 351,321 30,24 53,46 50,48 -2,3 2,11 11,18 29,24 18,40 -29,40 -43,0 -47,3 -89,58 -60,77 -116,127 -161,142 -29,9 -36,17 -36,37 0,15 -3,24 -6,20 -5,-5 10,-246 21,-352 3,-22 2,-45 -3,-50 -4,-6 -62,-32 -129,-58 -141,-54 -166,-68 -288,-157 -120,-88 -171,-116 -252,-141 -37,-12 -132,-46 -211,-76 -79,-30 -145,-53 -147,-51 -3,2 -11,37 -20,78 -26,122 -37,365 -30,625 6,229 12,326 35,586 13,157 14,385 1,450 -5,30 -15,95 -21,144 -14,116 -41,245 -52,245 -10,0 -11,9 11,-101 17,-83 33,-229 26,-229 -7,0 -45,89 -54,125 l -9,40 -1,-41 c -1,-29 12,-66 44,-133 l 45,-92 v -122 c 0,-67 -9,-225 -20,-352 -22,-257 -28,-400 -30,-650 l -1,-170 -34,130 c -40,154 -78,264 -111,322 -13,23 -20,44 -15,47 13,9 76,173 91,236 7,30 22,71 35,90 38,61 55,99 46,104 -5,3 -23,-17 -41,-44 -18,-28 -36,-50 -40,-50 -4,0 -11,-21 -15,-46 -6,-44 -67,-231 -85,-264 -5,-9 -10,7 -15,45 -14,130 -38,234 -90,389 -107,323 -206,536 -320,688 -36,47 -65,89 -65,92 0,10 129,157 179,204 64,61 117,102 123,96 10,-9 55,17 55,32 0,10 -6,9 -19,-6 -10,-11 -24,-20 -31,-20 -7,0 4,14 23,31 19,17 59,53 89,80 29,27 58,46 64,42 5,-3 7,-1 4,4 -6,9 63,73 70,66 2,-2 13,7 26,20 13,12 53,46 90,75 l 68,52 h 179 c 116,0 181,-4 185,-11 4,-6 13,-8 21,-5 13,5 208,-47 276,-73 15,-6 41,-32 58,-58 68,-109 179,-472 199,-654 l 10,-84 -5,95 c -10,190 -71,407 -166,593 -28,54 -60,104 -72,112 -11,7 -70,28 -131,45 -60,18 -117,36 -127,41 -31,17 -77,111 -263,552 -65,152 -120,276 -122,274 -3,-3 50,-141 95,-247 6,-14 31,-78 56,-143 51,-131 113,-263 163,-349 18,-31 33,-59 33,-62 0,-40 -215,175 -424,422 -70,83 -130,152 -133,152 -15,0 281,-353 401,-477 l 99,-103 h -184 -184 l -45,38 c -128,107 -181,169 -340,396 -71,102 -87,134 -112,215 -36,120 -80,327 -105,491 -10,69 -19,115 -21,102 -5,-36 37,-306 69,-441 16,-68 28,-126 26,-127 -5,-5 -75,224 -103,339 -89,359 -151,836 -125,967 9,45 9,66 2,73 -8,8 -11,3 -11,-18 0,-56 -37,-172 -91,-286 -72,-155 -80,-166 -132,-174 -23,-3 -50,-9 -59,-11 -20,-6 -49,-90 -68,-201 -7,-40 -17,-73 -21,-73 -4,0 -10,62 -13,138 -3,75 -11,225 -16,332 -6,107 -10,242 -10,299 0,102 0,104 41,178 45,81 76,108 114,101 14,-3 25,-1 25,3 0,20 -69,8 -98,-16 l -29,-24 -18,62 c -13,44 -20,116 -24,244 -4,100 -10,186 -14,189 -14,14 -18,-5 -8,-40 9,-35 15,-462 5,-441 -2,6 -8,51 -13,100 -9,81 -9,74 -5,-60 2,-82 7,-195 9,-250 2,-55 7,-190 10,-300 4,-110 13,-319 22,-465 11,-174 18,-474 20,-872 4,-598 4,-609 -18,-680 -11,-40 -32,-88 -45,-105 -34,-45 -16,-41 28,5 25,26 51,42 85,51 26,6 66,17 88,22 22,6 92,19 156,29 123,19 238,55 333,102 90,45 59,44 -50,-3 -95,-41 -225,-70 -321,-72 -23,-1 -39,-5 -37,-8 2,-4 -20,-10 -48,-14 -29,-4 -57,-11 -63,-15 -5,-4 -28,-10 -50,-13 -40,-6 -40,-6 -39,26 1,17 9,52 17,76 16,44 14,67 -4,56 -10,-7 -10,-27 -14,721 -1,303 -5,556 -9,562 -3,6 2,32 13,59 10,26 21,70 24,97 10,78 29,160 41,172 6,7 27,15 47,18 l 36,6 18,-72 c 10,-40 24,-93 31,-118 60,-200 62,-208 41,-194 -7,5 -5,2 5,-8 22,-20 46,-75 87,-201 113,-350 358,-784 498,-886 92,-66 147,-91 224,-99 l 74,-7 -50,-34 c -174,-119 -493,-403 -631,-562 l -49,-57 -67,-5 c -38,-2 -68,-1 -68,3 0,18 338,335 463,434 139,110 181,149 85,80 -133,-96 -266,-212 -425,-367 l -171,-169 -99,-24 c -90,-23 -198,-55 -248,-74 -103,-40 -105,-41 -105,-22 0,9 16,69 35,132 35,115 76,207 136,308 17,29 29,55 26,59 -3,3 -15,-10 -26,-28 -12,-19 -21,-30 -21,-26 0,15 -120,-86 -193,-163 -63,-65 -143,-183 -185,-270 -29,-61 -72,-204 -77,-257 -3,-32 -10,-87 -15,-123 -5,-36 -9,-85 -9,-110 l 1,-45 8,40 c 5,22 14,83 20,135 21,172 26,187 74,215 41,24 188,88 191,83 3,-5 -33,-287 -45,-353 -25,-144 19,-575 69,-673 5,-9 17,-36 26,-59 19,-46 45,-58 45,-20 0,12 -7,45 -16,72 -21,71 -33,132 -50,275 -15,124 -33,472 -29,546 6,99 18,200 26,215 8,15 63,34 309,103 301,84 302,84 363,16 184,-205 395,-735 437,-1103 10,-86 10,-116 1,-150 -19,-63 -79,-166 -129,-219 -59,-63 -35,-62 27,0 32,32 65,81 95,142 l 45,94 26,-58 c 27,-60 67,-193 106,-351 30,-118 30,-247 1,-325 -11,-30 -29,-77 -39,-104 l -19,-50 -74,-16 c -149,-33 -332,-91 -475,-151 l -73,-30 -63,39 c -77,48 -269,150 -324,174 -103,44 -225,87 -280,98 -33,6 -79,16 -102,21 -23,5 -106,19 -185,31 -125,20 -174,23 -392,20 -318,-3 -496,-31 -612,-96 l -42,-24 -29,47 c -16,25 -49,85 -73,133 l -45,87 55,57 c 30,31 97,90 148,131 51,41 91,77 88,80 -3,3 -18,-2 -33,-12 -47,-31 -206,-161 -237,-194 -17,-17 -33,-31 -37,-31 -10,0 -164,314 -180,365 -6,22 -16,49 -20,60 -50,120 -131,326 -171,435 -77,211 -90,251 -84,257 9,10 165,-71 255,-132 188,-127 468,-394 558,-531 47,-72 63,-87 63,-61 0,48 -205,286 -368,426 -115,99 -363,261 -457,299 l -60,24 -26,98 -26,99 29,35 c 28,35 187,152 326,240 182,116 487,271 687,349 50,19 121,49 158,66 38,17 79,31 91,31 12,0 55,25 96,55 41,30 84,55 96,55 11,0 31,-11 44,-25 13,-14 33,-25 45,-25 12,0 70,20 129,45 59,25 119,47 132,49 13,3 33,8 45,11 17,6 20,3 17,-17 -2,-12 2,-24 7,-26 18,-5 29,108 17,183 -7,39 -17,120 -22,181 -14,144 -56,288 -101,343 -39,49 -87,81 -121,81 -13,0 -80,-32 -149,-72 -164,-95 -183,-101 -229,-78 -19,10 -53,37 -75,60 -22,23 -71,58 -109,77 -119,60 -278,166 -336,223 -74,72 -137,172 -227,357 -41,83 -82,162 -92,175 -10,12 -18,30 -18,38 0,8 -16,42 -35,75 -59,104 -69,139 -57,193 5,25 19,67 30,91 19,44 20,44 35,23 8,-12 12,-27 8,-34 -4,-6 -3,-8 4,-4 17,10 30,-23 26,-68 -3,-39 -3,-40 8,-13 7,15 15,27 19,27 18,0 17,-19 -1,-54 -10,-21 -17,-45 -15,-54 1,-9 6,-42 10,-72 4,-30 16,-76 27,-102 15,-36 17,-51 9,-67 -9,-17 -8,-24 9,-41 26,-26 36,-25 65,6 19,20 25,38 25,70 0,31 4,44 14,44 10,0 12,7 9,23 l -6,22 27,-25 c 15,-13 24,-30 22,-37 -3,-7 1,-10 10,-6 19,7 18,12 -16,63 -17,25 -33,62 -37,83 -4,26 -8,34 -14,25 -7,-10 -9,-10 -9,0 0,24 1,27 14,25 18,-4 36,56 36,125 0,52 -3,62 -17,62 -15,0 -15,1 -1,13 8,6 20,21 26,32 10,17 11,17 12,3 0,-9 5,-20 12,-24 8,-5 9,33 4,155 -8,196 -10,222 -41,477 -34,277 -32,282 14,34 6,-30 20,-95 32,-145 12,-49 28,-117 36,-150 20,-87 28,-246 14,-273 -17,-32 3,-27 33,9 14,17 26,26 26,20 0,-21 49,-12 61,11 12,22 12,22 19,3 6,-17 9,-13 19,20 6,22 11,51 11,65 1,50 15,54 49,12 29,-37 82,-68 95,-55 3,3 -4,13 -15,22 -25,20 -63,122 -43,114 9,-3 25,20 49,73 20,43 47,93 61,111 25,32 110,90 120,80 3,-2 -6,-21 -20,-41 -31,-47 -38,-79 -28,-141 8,-48 7,-51 -27,-82 -19,-18 -32,-36 -28,-39 4,-4 16,1 26,10 11,10 24,15 30,11 12,-6 43,7 42,18 -3,19 2,25 35,41 33,15 39,15 59,2 22,-15 23,-14 29,19 5,24 12,35 25,35 9,0 32,11 51,25 19,14 45,25 58,25 13,0 21,4 18,9 -3,4 14,22 38,39 88,63 105,184 21,152 -15,-6 -80,-15 -144,-20 -134,-11 -204,-29 -281,-73 -57,-32 -131,-101 -160,-150 l -17,-27 -22,75 c -13,43 -20,84 -16,96 5,15 4,19 -4,15 -7,-4 -11,0 -11,11 0,11 -5,24 -11,30 -6,6 -9,28 -7,49 3,33 11,45 71,95 37,31 84,65 103,74 32,15 38,15 67,2 125,-60 374,-112 552,-116 50,-1 50,-2 71,-49 29,-63 47,-130 38,-144 -4,-6 -3,-8 3,-5 24,15 70,-558 79,-978 2,-99 6,-222 9,-274 l 5,-93 -38,-47 c -57,-70 -96,-131 -88,-138 3,-4 13,2 20,13 8,10 34,45 59,77 l 46,59 10,-44 c 33,-133 128,-372 166,-418 32,-39 59,-293 51,-480 -3,-67 -1,-103 4,-85 23,85 -3,588 -31,605 -5,3 -13,60 -19,125 -41,473 -50,566 -60,645 -5,41 -19,168 -32,283 -12,114 -25,207 -29,207 -3,0 -9,-53 -13,-117 -4,-65 -14,-170 -22,-233 -7,-63 -14,-151 -14,-194 0,-44 -2,-77 -5,-74 -3,3 -6,88 -6,190 1,357 -33,850 -70,1021 -20,89 -135,412 -171,477 -26,47 -18,18 31,-120 23,-63 40,-118 39,-122 -3,-7 -33,35 -173,242 -35,52 -76,109 -90,125 l -27,30 23,-40 c 25,-44 80,-129 183,-279 37,-55 71,-106 74,-115 8,-21 -23,2 -122,91 -94,84 -75,54 28,-44 l 71,-67 -94,25 c -51,14 -104,30 -118,35 -14,5 -22,5 -18,0 3,-5 36,-19 73,-31 73,-24 108,-46 57,-36 -16,3 -63,10 -103,16 -96,13 -147,25 -261,62 -110,36 -109,37 22,90 110,45 78,47 -47,3 -72,-25 -112,-34 -128,-29 -30,9 -92,49 -150,97 -34,28 -53,37 -68,32 -16,-5 -20,-2 -20,17 0,26 26,165 35,190 14,35 234,98 345,98 33,0 60,4 60,9 0,17 -62,30 -190,41 -69,5 -148,12 -177,15 -29,3 -54,1 -58,-5 -12,-19 -25,-10 -25,18 0,23 -10,33 -55,60 -30,18 -55,35 -55,37 0,3 26,18 58,33 365,181 775,201 1132,54 302,-124 512,-279 665,-489 78,-109 219,-338 287,-468 37,-71 68,-125 68,-119 0,6 -33,78 -74,160 -79,159 -200,349 -314,492 -199,249 -507,434 -842,507 -119,26 -385,31 -511,11 -128,-21 -320,-84 -417,-137 l -74,-39 -258,175 c -143,96 -267,175 -276,175 -13,0 -10,-11 16,-57 z m 420,-466 c 16,-12 29,-24 29,-27 1,-3 -12,-13 -28,-23 -50,-29 -204,-161 -255,-218 -27,-30 -65,-78 -84,-107 -19,-29 -37,-50 -39,-48 -17,17 154,280 249,381 75,80 79,82 128,42 z m 151,-247 c 25,-30 57,-61 72,-68 24,-12 27,-19 27,-65 0,-29 5,-82 10,-118 l 10,-66 -41,-44 c -22,-24 -54,-72 -72,-108 l -31,-65 -8,35 c -4,19 -28,133 -52,254 -25,121 -47,227 -51,236 -4,11 6,24 32,42 21,14 43,25 49,24 6,-1 31,-27 55,-57 z m -132,-200 c 7,-69 19,-183 27,-255 58,-505 61,-555 40,-555 -10,0 -16,-9 -16,-25 0,-23 -53,-95 -70,-95 -4,0 -4,17 1,38 5,20 8,53 8,72 -1,32 -1,33 -8,10 -5,-14 -14,-54 -21,-90 -16,-89 -25,-102 -41,-66 -12,25 -11,30 6,43 19,15 19,15 -7,9 -24,-5 -28,-1 -49,40 -17,36 -19,48 -9,54 9,6 7,10 -8,14 -15,5 -27,28 -47,94 -35,114 -33,111 -34,81 -1,-14 8,-52 19,-85 25,-74 25,-84 0,-84 -21,0 -30,16 -82,155 -33,88 -67,223 -68,270 0,17 -5,37 -10,45 -8,11 -9,7 -5,-15 3,-16 6,-95 5,-175 0,-152 16,-292 50,-426 21,-82 59,-198 75,-224 42,-71 40,-72 -13,-5 -35,44 -36,24 -1,-24 29,-39 31,-47 26,-103 -7,-80 -20,-92 -41,-36 l -16,43 5,-45 4,-45 -14,45 c -8,25 -19,54 -24,65 -28,60 -78,281 -102,450 -6,50 -12,169 -13,265 l -1,175 38,85 c 21,47 46,96 56,109 l 18,23 2,-54 c 2,-62 18,-168 26,-177 3,-3 3,26 -1,64 -4,39 -8,102 -8,140 -1,64 2,74 34,121 51,73 137,173 195,223 l 49,44 7,-34 c 3,-19 12,-90 18,-159 z m 343,38 c -1,-5 2,-7 7,-4 5,4 31,-7 56,-23 l 47,-30 -89,-43 c -48,-23 -91,-44 -94,-46 -8,-4 -29,136 -29,194 v 46 l 53,-42 c 28,-23 51,-47 49,-52 z m -335,10 c -3,-8 -6,-5 -6,6 -1,11 2,17 5,13 3,-3 4,-12 1,-19 z m 10,-50 c -3,-7 -5,-2 -5,12 0,14 2,19 5,13 2,-7 2,-19 0,-25 z m 303,-112 c 0,-3 -4,-8 -10,-11 -5,-3 -10,-1 -10,4 0,6 5,11 10,11 6,0 10,-2 10,-4 z m -124,-147 c -46,-61 -73,-109 -61,-109 2,0 29,36 60,81 32,44 58,79 60,77 1,-2 17,-59 34,-128 30,-116 91,-289 114,-317 6,-9 6,-13 -1,-13 -11,0 -74,75 -88,105 -6,15 -9,7 -12,-35 -1,-30 -9,-68 -17,-85 -16,-31 -49,-75 -58,-75 -3,0 -4,26 -1,58 l 4,57 -29,-62 c -17,-35 -32,-63 -34,-63 -3,0 -5,35 -6,78 -1,42 -10,123 -21,180 -29,151 -27,171 37,284 37,64 66,88 71,58 2,-11 -20,-49 -52,-91 z m 714,1 c 0,-19 -41,-98 -60,-115 -17,-15 -19,-14 -39,18 -11,18 -29,42 -41,52 -11,10 -20,21 -20,26 0,4 33,11 73,17 39,5 75,10 80,11 4,0 7,-4 7,-9 z m -150,-159 c 0,-3 -8,-11 -17,-17 -10,-5 -35,-20 -55,-33 -38,-22 -38,-22 -38,-2 0,14 5,19 16,14 11,-4 15,-1 12,13 -2,14 3,19 21,19 14,0 26,6 28,12 4,12 33,7 33,-6 z m -383,-118 c -3,-10 -5,-4 -5,12 0,17 2,24 5,18 2,-7 2,-21 0,-30 z m -638,-323 c -10,-28 -19,-72 -19,-98 -1,-31 -4,-42 -9,-32 -14,25 -39,161 -46,245 -3,44 -8,107 -11,140 l -5,60 55,-133 54,-132 z m 2327,89 c 14,-265 91,-671 185,-970 21,-70 39,-130 39,-135 0,-37 -146,252 -243,481 -89,210 -111,274 -127,371 l -10,59 72,152 c 40,83 74,150 76,149 1,-2 5,-50 8,-107 z m -2246,-64 c -12,-15 -30,-12 -30,6 0,5 10,9 21,9 18,0 19,-2 9,-15 z m 38,-52 c 39,-83 24,-102 -21,-27 -26,43 -30,74 -10,74 5,0 18,-21 31,-47 z m -78,23 c 0,-2 -8,-10 -17,-17 -16,-13 -17,-12 -4,4 13,16 21,21 21,13 z m 238,-91 c 2,-33 1,-35 -28,-35 -34,0 -33,7 3,48 11,12 21,22 22,22 0,0 2,-16 3,-35 z m -104,-54 c -9,-10 -36,28 -29,39 6,9 12,6 21,-11 7,-13 10,-26 8,-28 z m 20,-115 c 4,-19 18,-50 31,-71 22,-32 24,-42 17,-83 -6,-38 -12,-48 -30,-50 -30,-5 -54,51 -56,133 -2,102 23,150 38,71 z m 1440,-231 c 19,-160 20,-219 3,-234 -8,-6 -18,-7 -22,-3 -5,4 -5,2 -2,-4 4,-7 -3,-24 -15,-39 -16,-20 -23,-24 -29,-13 -14,22 -10,236 7,348 9,58 17,116 18,130 2,14 4,39 6,55 2,17 6,-1 10,-40 4,-38 15,-128 24,-200 z m -1381,190 c -7,-21 -13,-19 -13,6 0,11 4,18 10,14 5,-3 7,-12 3,-20 z m -126,-257 c -3,-8 -6,-5 -6,6 -1,11 2,17 5,13 3,-3 4,-12 1,-19 z m 42,-78 c 0,-10 -3,-8 -9,5 -12,27 -12,43 0,25 5,-8 9,-22 9,-30 z m 1378,-52 c -3,-8 -6,-5 -6,6 -1,11 2,17 5,13 3,-3 4,-12 1,-19 z m 143,-378 c 6,-74 15,-162 20,-194 6,-33 8,-61 7,-63 -5,-4 -54,125 -112,297 -12,36 -25,92 -29,126 l -7,61 43,48 43,49 12,-95 c 7,-52 17,-155 23,-229 z m -1355,139 c 11,-16 1,-19 -13,-3 -7,8 -8,14 -3,14 5,0 13,-5 16,-11 z m 201,-187 c 1,-7 0,-8 -3,-2 -2,5 -9,8 -14,5 -5,-4 -17,-2 -26,4 -15,8 -13,10 11,8 16,-1 31,-8 32,-15 z m -109,-24 c -3,-7 -5,-2 -5,12 0,14 2,19 5,13 2,-7 2,-19 0,-25 z m 203,-34 c 0,-1 -6,-6 -12,-10 -7,-4 -10,-4 -6,1 4,4 -3,16 -15,27 l -22,19 28,-17 c 15,-9 27,-18 27,-20 z m -193,-6 c -3,-8 -6,-5 -6,6 -1,11 2,17 5,13 3,-3 4,-12 1,-19 z m 40,-35 c -3,-10 -5,-2 -5,17 0,19 2,27 5,18 2,-10 2,-26 0,-35 z m 200,11 c -3,-3 -12,-4 -19,-1 -8,3 -5,6 6,6 11,1 17,-2 13,-5 z m -177,-307 40,-258 -37,-44 c -20,-25 -37,-45 -38,-45 0,0 0,57 -1,127 0,71 -4,214 -7,318 -3,105 -4,183 -2,175 3,-8 23,-131 45,-273 z m 293,244 c 9,-8 17,-10 17,-6 0,5 27,-19 61,-53 33,-34 71,-65 84,-68 29,-7 40,-31 23,-52 -11,-13 -11,-14 1,-8 8,5 17,3 22,-5 14,-22 10,-33 -6,-19 -12,10 -15,9 -16,-6 0,-11 -8,5 -16,34 -9,28 -21,52 -28,52 -7,0 -27,16 -46,35 -36,37 -55,45 -45,19 3,-9 2,-12 -5,-9 -6,4 -8,14 -5,22 3,8 1,23 -4,34 -9,15 -15,17 -31,9 -14,-8 -19,-8 -17,2 2,7 -7,17 -19,22 -13,6 -25,16 -27,23 -6,14 23,1 57,-26 z m 547,29 c 11,-7 11,-10 2,-10 -8,0 -10,-5 -6,-12 5,-9 2,-9 -9,1 -30,24 -19,41 13,21 z m -841,-45 c 0,-5 -4,-3 -9,5 -5,8 -9,22 -9,30 0,16 17,-16 18,-35 z m 783,28 c -6,-2 -10,-8 -8,-12 3,-4 0,-8 -7,-8 -7,0 -21,-4 -32,-8 -11,-4 -6,2 10,13 17,11 35,21 40,20 6,0 4,-2 -3,-5 z m -761,-36 c -10,-9 -11,-8 -5,6 3,10 9,15 12,12 3,-3 0,-11 -7,-18 z m 885,1 c 19,-23 19,-23 -2,-5 -11,9 -24,14 -29,10 -4,-5 -5,-2 -1,5 9,16 10,16 32,-10 z m -25,-30 c 19,-24 26,-37 16,-29 -20,16 -61,71 -54,71 3,0 20,-19 38,-42 z m -944,0 c -3,-8 -6,-5 -6,6 -1,11 2,17 5,13 3,-3 4,-12 1,-19 z m 72,-52 c 1,-54 -5,-42 -12,24 -4,36 -3,48 3,35 5,-11 9,-38 9,-59 z m 311,64 c 0,-5 -4,-10 -10,-10 -5,0 -10,5 -10,10 0,6 5,10 10,10 6,0 10,-4 10,-10 z m 365,-9 c -23,-10 -34,-20 -26,-22 8,-3 12,-10 10,-17 -3,-8 -9,-5 -17,8 -11,19 -10,22 20,35 18,8 38,14 43,14 6,0 -8,-8 -30,-18 z m 135,-1 c 0,10 4,8 15,-6 9,-14 12,-30 6,-50 l -7,-29 -11,30 c -25,69 -26,71 -14,55 9,-13 11,-13 11,0 z m -107,-30 c 3,-11 1,-20 -4,-20 -5,0 -9,9 -9,20 0,11 2,20 4,20 2,0 6,-9 9,-20 z m -83,5 c 0,-2 -9,-9 -20,-15 -12,-6 -20,-7 -20,-1 0,5 8,12 18,14 9,3 18,5 20,6 1,0 2,-1 2,-4 z m 164,-21 c 3,-8 2,-12 -4,-9 -6,3 -10,10 -10,16 0,14 7,11 14,-7 z m 163,-6 c -3,-8 -6,-5 -6,6 -1,11 2,17 5,13 3,-3 4,-12 1,-19 z m -381,-7 c -4,-5 -3,-11 1,-14 5,-2 2,-2 -6,0 -23,6 -43,-17 -30,-33 9,-11 9,-14 0,-14 -8,0 -7,-9 4,-30 8,-16 15,-38 15,-50 0,-12 4,-19 9,-16 5,3 7,16 5,29 -4,20 -4,20 5,2 5,-12 5,-24 0,-29 -18,-20 -8,-29 11,-11 11,10 23,15 27,12 3,-4 0,-7 -8,-7 -11,0 -11,-2 1,-10 23,-15 26,-13 28,22 4,50 12,46 12,-5 0,-26 -2,-47 -5,-47 -3,0 -17,7 -30,16 -14,9 -25,12 -25,6 0,-6 9,-13 19,-17 11,-3 25,-12 31,-20 8,-10 -3,-7 -32,7 -42,20 -47,27 -64,82 -10,34 -19,67 -20,74 -2,8 -5,17 -9,20 -3,3 9,14 27,24 39,20 41,21 34,9 z m 287,-11 c -3,-11 7,-40 23,-67 15,-27 21,-42 12,-36 -8,7 -18,10 -22,6 -4,-4 -4,1 0,11 5,13 4,17 -4,12 -8,-5 -10,-1 -5,10 5,13 3,15 -7,9 -9,-6 -11,-4 -5,5 4,7 3,15 -2,19 -7,3 -7,15 -2,29 10,27 19,29 12,2 z m -146,-12 c -3,-8 -6,-5 -6,6 -1,11 2,17 5,13 3,-3 4,-12 1,-19 z m -317,2 c 0,-5 -2,-10 -4,-10 -3,0 -8,5 -11,10 -3,6 -1,10 4,10 6,0 11,-4 11,-10 z m 289,-40 c 0,-8 -5,-4 -13,10 -7,14 -10,29 -8,34 6,11 20,-20 21,-44 z m 231,-2 c 0,-17 -10,-6 -25,25 l -16,32 20,-25 c 11,-14 21,-28 21,-32 z m -530,16 c 0,-2 -7,-4 -15,-4 -8,0 -15,4 -15,10 0,5 7,7 15,4 8,-4 15,-8 15,-10 z m -355,-96 5,-63 -15,60 c -8,33 -14,69 -14,80 -1,47 19,-16 24,-77 z m 410,64 c -3,-8 0,-20 7,-25 9,-6 7,-7 -7,-2 -15,5 -17,3 -8,-6 6,-6 27,-12 47,-12 28,-1 36,-5 36,-19 0,-14 -4,-16 -17,-9 -10,5 -52,19 -93,31 -41,12 -82,25 -90,28 -34,11 -48,7 -66,-20 -11,-16 -28,-28 -39,-27 -14,0 -16,2 -6,6 8,3 26,18 40,33 20,22 33,27 56,23 17,-2 37,-5 45,-5 8,-1 21,-7 28,-15 7,-7 17,-13 22,-13 17,0 39,31 33,47 -4,11 -3,14 6,9 7,-5 10,-15 6,-24 z m 530,19 c -3,-5 -1,-12 5,-16 5,-3 10,-11 10,-18 0,-6 -6,-2 -14,8 -13,18 -13,35 0,35 3,0 3,-4 -1,-9 z m -581,-16 c 11,-8 16,-15 10,-15 -5,0 -18,7 -28,15 -11,8 -16,15 -10,15 5,0 18,-7 28,-15 z m -160,-12 c -10,-7 -23,-13 -28,-12 -6,0 -5,3 2,6 6,2 10,8 8,12 -3,4 4,7 15,7 19,0 19,-1 3,-13 z m 612,-25 c 23,-45 12,-43 -13,3 -12,21 -17,37 -12,33 5,-3 16,-19 25,-36 z m 107,-5 c -3,-7 -7,-13 -10,-13 -3,0 -3,6 0,14 3,8 -1,17 -9,20 -9,3 -12,11 -9,17 9,14 34,-21 28,-38 z m -263,-23 c -7,-52 -7,-53 -9,-13 -1,36 7,80 14,71 1,-2 -1,-28 -5,-58 z m 47,38 c -3,-8 -6,-5 -6,6 -1,11 2,17 5,13 3,-3 4,-12 1,-19 z m -140,-20 c -3,-8 -6,-5 -6,6 -1,11 2,17 5,13 3,-3 4,-12 1,-19 z m 110,-10 c -3,-8 -6,-5 -6,6 -1,11 2,17 5,13 3,-3 4,-12 1,-19 z m 45,-5 c -3,-16 -7,-22 -10,-15 -4,13 4,42 11,42 2,0 2,-12 -1,-27 z m 1523,17 c 3,-5 1,-10 -4,-10 -6,0 -11,5 -11,10 0,6 2,10 4,10 3,0 8,-4 11,-10 z m -2356,-67 c -1,-53 -6,-49 -11,10 -2,20 0,37 4,37 4,0 8,-21 7,-47 z m 986,37 c 3,-5 1,-10 -4,-10 -6,0 -11,5 -11,10 0,6 2,10 4,10 3,0 8,-4 11,-10 z m -739,-34 c -12,-16 -29,-32 -37,-34 -11,-3 -11,-1 1,7 11,8 12,11 2,11 -7,0 -10,5 -6,11 5,8 9,8 14,-1 6,-9 9,-9 15,0 4,7 -2,14 -16,17 -22,6 -22,7 -3,14 10,4 27,6 36,6 15,-1 14,-5 -6,-31 z m 551,12 c -3,-8 -6,-5 -6,6 -1,11 2,17 5,13 3,-3 4,-12 1,-19 z m -487,4 c 0,-5 -9,-17 -21,-28 -12,-10 -39,-49 -60,-86 -34,-58 -59,-90 -59,-75 0,7 73,129 98,165 22,30 42,42 42,24 z m 641,-45 c -10,-9 -11,-8 -5,6 3,10 9,15 12,12 3,-3 0,-11 -7,-18 z m -181,-23 c 0,-8 -4,-12 -10,-9 -5,3 -10,13 -10,21 0,8 5,12 10,9 6,-3 10,-13 10,-21 z m 210,12 c 0,-2 -7,-7 -16,-10 -8,-3 -12,-2 -9,4 6,10 25,14 25,6 z m 53,-10 c 4,-10 1,-13 -8,-9 -8,3 -12,9 -9,14 7,12 11,11 17,-5 z m -883,-19 c 0,-31 10,-40 28,-24 13,10 14,9 2,-10 -13,-20 -15,-20 -27,-5 -7,9 -13,26 -13,37 l -1,20 -9,-20 c -6,-15 -9,-16 -9,-4 -1,9 2,19 6,22 13,14 23,6 23,-16 z m 54,8 c -4,-8 -11,-12 -16,-9 -6,4 -5,10 3,15 19,12 19,11 13,-6 z m -214,-56 c 0,-40 -4,-58 -11,-54 -6,4 -8,13 -5,20 2,7 -1,18 -7,25 -9,10 -9,11 1,6 8,-5 12,3 12,28 0,20 2,36 5,36 3,0 5,-27 5,-61 z m 829,32 c -3,-8 -11,-7 -24,4 -19,14 -19,15 -1,8 15,-5 17,-3 11,8 -6,11 -5,11 5,2 7,-6 11,-16 9,-22 z m 45,-15 c -7,-17 22,-40 38,-30 10,5 10,4 1,-6 -10,-11 -16,-10 -33,5 -11,10 -19,24 -16,31 2,6 -1,18 -7,25 -10,11 -9,11 5,0 9,-7 15,-18 12,-25 z m 189,-16 c 3,-11 3,-20 1,-20 -2,0 -8,9 -14,20 -6,11 -7,20 -2,20 6,0 12,-9 15,-20 z m 56,-20 c 0,-10 -3,-8 -9,5 -12,27 -12,43 0,25 5,-8 9,-22 9,-30 z m -959,0 c 5,0 7,-7 4,-15 -9,-23 -24,-7 -23,23 1,17 3,21 6,10 2,-10 8,-18 13,-18 z m 934,-46 c 3,-8 2,-12 -4,-9 -6,3 -10,10 -10,16 0,14 7,11 14,-7 z m -66,-39 c 13,-4 21,-9 19,-12 -8,-7 -74,26 -89,45 -9,11 -3,9 17,-5 17,-11 40,-24 53,-28 z m 36,26 c 3,-5 -1,-11 -9,-14 -9,-4 -12,-1 -8,9 6,16 10,17 17,5 z m -1037,-48 c -3,-10 -5,-2 -5,17 0,19 2,27 5,18 2,-10 2,-26 0,-35 z m 1099,19 c -3,-3 -1,-11 5,-19 7,-7 7,-13 2,-13 -5,0 -15,11 -21,25 -9,20 -9,23 4,18 8,-3 12,-8 10,-11 z m -1139,-39 c -3,-10 -5,-4 -5,12 0,17 2,24 5,18 2,-7 2,-21 0,-30 z m 107,-27 c -66,-77 -125,-157 -194,-261 -83,-124 -90,-134 -90,-119 0,14 112,193 164,264 49,65 128,150 140,150 4,0 -5,-15 -20,-34 z m -61,5 c 3,-11 -1,-22 -8,-25 -8,-3 -12,2 -10,12 2,9 4,20 4,25 2,13 9,7 14,-12 z m -50,-31 c -3,-12 -8,-19 -11,-16 -5,6 5,36 12,36 2,0 2,-9 -1,-20 z m -19,-62 c -21,-37 -47,-68 -55,-68 -6,0 -3,7 6,17 9,9 21,27 26,40 4,12 13,23 19,23 6,0 8,-6 4,-12 z m 1478,-185 c -23,-37 -55,-113 -73,-168 -18,-55 -36,-102 -39,-105 -3,-3 -7,-12 -9,-20 -25,-103 -27,-105 -62,-116 -27,-10 -96,-40 -181,-82 -11,-5 25,96 57,158 58,114 120,198 228,302 61,59 113,106 115,104 2,-3 -14,-35 -36,-73 z m -2945,-90 c 23,-51 110,-201 138,-238 12,-16 28,-47 34,-68 21,-63 57,-88 241,-171 330,-148 312,-136 331,-211 32,-129 57,-212 108,-360 56,-162 83,-233 201,-530 49,-125 181,-404 206,-435 6,-8 30,-49 52,-91 22,-41 68,-119 101,-173 34,-53 61,-99 61,-102 0,-3 38,-62 84,-132 54,-83 105,-146 145,-182 170,-151 211,-203 346,-428 22,-37 59,-95 83,-130 23,-35 42,-70 42,-79 0,-26 -24,1 -76,85 -26,42 -62,95 -80,117 -17,22 -46,67 -64,100 -84,156 -130,212 -238,292 -142,105 -179,158 -409,591 -129,243 -274,535 -303,612 -32,85 -41,55 -10,-34 12,-32 20,-62 18,-68 -2,-5 -39,17 -83,49 -44,32 -107,76 -140,97 -54,35 -162,114 -222,163 -39,32 -45,69 -51,292 l -5,214 96,-99 c 52,-54 122,-119 156,-144 46,-35 64,-55 77,-90 67,-184 126,-320 139,-320 5,0 -30,102 -49,142 -23,48 -163,468 -191,571 -22,81 -28,92 -76,136 -40,37 -76,57 -163,91 -61,24 -159,67 -217,96 l -106,53 -23,58 c -13,32 -49,103 -80,158 -67,117 -85,152 -94,183 -11,35 1,26 21,-15 z m 409,-17 c 150,-20 195,-28 191,-33 -2,-2 -76,3 -163,12 -88,8 -203,15 -256,15 -59,0 -98,4 -98,10 0,15 199,12 326,-4 z m 895,-35 c -8,-15 -27,-20 -83,-26 -40,-3 -105,-13 -145,-21 -70,-14 -131,-19 -122,-10 10,11 161,37 242,43 54,4 91,11 98,19 16,20 21,17 10,-5 z M 1341,5954 c 27,-50 49,-100 49,-111 0,-11 11,-32 25,-46 l 26,-25 -32,-11 c -18,-6 -33,-10 -34,-9 -1,2 -36,84 -77,182 -107,254 -87,263 43,20 z m 2714,-883 c 8,-58 21,-131 29,-161 19,-71 12,-78 -9,-8 -29,98 -46,222 -50,373 l -4,150 9,-124 c 5,-68 16,-171 25,-230 z m 2549,-992 c 57,-26 112,-163 136,-341 6,-45 15,-101 20,-123 8,-36 24,-141 65,-415 18,-120 52,-292 66,-328 6,-15 21,-38 34,-52 25,-27 70,-118 62,-127 -3,-2 -49,1 -102,8 -57,7 -156,10 -241,7 l -144,-5 -127,-73 c -71,-40 -154,-91 -185,-112 l -58,-39 1,58 c 0,32 4,85 8,117 8,63 9,64 118,157 42,35 42,36 31,75 -12,42 -13,93 -2,137 5,20 2,31 -9,40 -48,37 -81,615 -47,830 7,47 16,66 45,95 19,20 35,39 35,43 0,13 74,51 115,59 49,11 144,5 179,-11 z m -2974,-56 c 164,-23 430,-73 483,-90 54,-17 192,-84 282,-138 33,-19 71,-40 85,-46 14,-6 58,-29 99,-51 l 74,-41 -34,-18 c -37,-18 -94,-77 -65,-66 9,4 16,1 16,-6 0,-7 -25,-28 -56,-47 -30,-19 -79,-53 -107,-75 -182,-142 -256,-192 -594,-405 -171,-108 -233,-158 -271,-221 -12,-20 -29,-42 -37,-49 -14,-11 -14,-10 -5,14 5,15 15,37 21,48 8,15 8,19 0,14 -6,-4 -18,-24 -27,-44 -15,-35 -16,-36 -30,-18 -8,11 -14,34 -14,51 0,34 -8,47 -196,334 -61,94 -121,190 -134,215 -16,30 -32,46 -50,50 -39,9 -116,71 -165,134 -45,58 -151,221 -195,300 l -25,44 23,18 c 29,23 125,56 227,76 157,31 531,41 695,17 z m 1308,-488 c 93,-23 223,-68 507,-175 74,-27 113,-49 145,-79 53,-49 40,-55 -16,-8 -37,32 -178,90 -284,117 -25,7 -97,32 -160,57 -143,56 -244,87 -337,103 -40,6 -73,14 -73,17 0,11 115,-6 218,-32 z m 559,-401 c -5,-44 -3,-48 47,-101 28,-31 98,-96 155,-146 118,-103 119,-98 -16,-112 l -68,-6 -142,138 c -143,139 -161,166 -128,193 19,16 138,79 149,80 5,0 6,-21 3,-46 z m -39,-232 c 74,-73 132,-135 129,-138 -3,-3 -54,-8 -115,-11 l -110,-6 -94,84 c -51,46 -107,98 -125,115 l -32,32 92,49 c 91,49 92,49 106,29 8,-12 75,-81 149,-154 z m 792,114 c 0,-49 -37,-91 -71,-81 -23,8 -23,8 -4,16 11,4 14,8 8,8 -21,1 -15,27 13,60 35,42 54,40 54,-3 z m -70,-134 c -4,-15 -14,-41 -22,-59 l -14,-32 -27,25 c -34,31 -34,42 0,86 26,33 29,34 50,21 17,-11 20,-19 13,-41 z m -52,-98 c 2,-1 -1,-46 -7,-101 -6,-54 -15,-156 -21,-228 -6,-71 -15,-150 -21,-175 -5,-25 -20,-130 -34,-235 -13,-104 -33,-253 -45,-330 -18,-125 -28,-181 -71,-397 -21,-104 -59,-141 -206,-199 -131,-53 -333,-82 -333,-48 0,5 -6,9 -13,9 -22,0 -40,91 -45,233 -5,158 4,262 20,233 6,-10 11,-96 12,-195 1,-147 5,-181 19,-209 20,-37 23,-38 89,-51 39,-7 60,-4 130,19 116,38 260,111 253,129 -3,7 -1,19 4,25 11,13 32,88 37,131 2,17 13,71 24,122 11,51 25,148 31,215 9,113 66,552 89,693 5,33 15,132 21,220 6,88 14,164 16,168 3,5 15,0 26,-10 12,-10 23,-19 25,-19 z m -2519,-28 c 7,-9 16,-76 21,-163 11,-180 44,-439 69,-548 11,-44 22,-109 26,-145 10,-107 41,-233 75,-306 18,-38 34,-63 37,-57 3,7 -9,43 -26,80 -34,77 -56,168 -70,293 -5,47 -14,98 -20,113 -11,27 -34,174 -47,296 -5,48 -3,65 7,72 11,7 11,9 -2,9 -12,0 -18,15 -24,63 -13,108 -5,202 16,195 6,-2 13,-27 15,-57 7,-88 51,-147 79,-107 18,24 23,12 41,-106 9,-56 20,-110 25,-118 51,-84 73,-159 89,-301 16,-148 81,-332 107,-305 4,4 2,10 -5,15 -6,4 -20,32 -31,63 l -20,57 29,43 c 16,24 56,69 89,101 56,54 59,60 49,85 -5,15 -10,62 -10,105 1,61 6,86 23,117 13,22 26,40 30,40 3,0 6,-22 5,-50 -1,-27 2,-50 6,-50 5,0 8,-7 8,-15 0,-10 10,-15 30,-15 20,0 30,-5 30,-15 0,-8 7,-36 16,-62 9,-26 16,-59 16,-73 -1,-31 -46,-134 -76,-175 -37,-50 -123,-208 -130,-239 -13,-52 -65,-112 -141,-161 -22,-15 -51,-42 -65,-61 -81,-113 -104,-121 -134,-46 -24,60 -91,154 -150,211 -66,64 -66,46 0,-25 31,-32 67,-76 80,-97 25,-38 24,-63 -2,-53 -19,7 -18,-8 1,-24 12,-10 13,-15 3,-28 -11,-13 -8,-12 19,1 22,12 34,14 39,6 3,-6 1,-15 -7,-19 -7,-5 -14,-27 -14,-50 -1,-35 1,-39 11,-25 6,9 10,24 7,34 -3,10 0,22 7,26 7,4 10,1 9,-6 -1,-8 1,-22 6,-32 5,-13 1,-25 -15,-43 -13,-13 -18,-24 -12,-24 6,0 14,5 17,10 12,20 25,10 25,-19 0,-16 -6,-32 -12,-34 -8,-3 -6,-6 5,-6 27,-1 20,-27 -13,-51 -30,-21 -31,-21 -63,-3 -17,11 -32,26 -32,34 -1,8 -7,13 -14,11 -16,-3 -45,21 -73,61 -20,27 -20,29 -2,49 19,21 19,21 -6,7 -30,-16 -41,-18 -55,-8 -5,3 -28,10 -50,13 -22,4 -50,10 -62,13 -13,3 -23,0 -23,-5 0,-6 19,-15 43,-20 34,-7 38,-10 22,-17 -11,-4 -34,-13 -52,-21 -17,-8 -38,-14 -46,-14 -9,0 -78,-23 -154,-51 -136,-50 -287,-88 -350,-89 -73,0 -292,92 -516,217 -12,7 -26,14 -31,16 -4,1 -1,19 7,39 9,20 25,70 36,110 24,90 127,338 163,394 23,35 35,43 90,59 133,38 143,38 111,3 -10,-11 -12,-18 -4,-18 21,0 54,44 126,165 44,74 83,127 106,144 19,14 82,43 140,64 84,31 115,48 154,85 28,26 55,47 60,48 26,1 54,17 59,32 2,9 7,38 11,65 4,34 11,47 23,48 14,1 14,2 -2,6 -14,4 -17,11 -12,36 9,44 15,46 41,13 20,-25 24,-44 28,-130 3,-56 8,-114 11,-131 7,-40 -11,-105 -37,-134 -12,-13 -56,-48 -98,-77 -83,-59 -88,-67 -115,-187 -17,-72 -17,-79 -1,-94 21,-21 32,-11 18,15 -11,21 -1,72 14,71 6,-1 9,-5 8,-10 -2,-4 3,-6 11,-3 18,7 61,-45 90,-109 38,-84 40,-97 19,-112 -35,-26 -4,-27 61,-1 35,14 69,26 75,26 18,0 13,-22 -11,-47 -12,-13 -17,-23 -11,-23 5,0 20,11 32,24 21,23 22,26 12,126 -6,56 -11,157 -11,224 0,66 -7,159 -15,205 -18,102 -18,356 -1,415 9,28 17,40 28,38 9,-1 20,3 24,9 5,9 2,10 -9,6 -11,-4 -17,-1 -17,8 0,9 10,15 24,15 23,0 24,-4 31,-89 6,-80 9,-90 31,-99 13,-6 26,-7 29,-3 2,5 -6,12 -19,15 -21,5 -23,12 -29,100 -8,123 9,181 42,142 z m -138,-41 c 4,-24 1,-51 -7,-72 -8,-18 -14,-43 -14,-57 0,-14 -5,-28 -10,-31 -18,-11 -32,48 -25,109 10,96 44,126 56,51 z m 279,-72 c 28,-63 24,-127 -7,-131 -18,-3 -24,4 -32,35 -18,63 -12,143 10,143 4,0 17,-21 29,-47 z m -415,-100 c -10,-123 -23,-163 -50,-163 -19,0 -19,-1 4,95 36,148 56,177 46,68 z m 2684,-151 c -9,-34 -22,-50 -58,-74 -25,-17 -57,-41 -71,-53 -18,-16 -42,-24 -87,-28 -34,-3 -76,-12 -92,-20 -28,-14 -30,-14 -22,1 16,29 172,214 256,304 l 80,86 3,-86 c 2,-48 -2,-106 -9,-130 z m -1795,-99 c 11,-55 10,-117 0,-120 -12,-4 -24,50 -24,110 0,43 16,50 24,10 z m -826,-190 c -5,-27 -6,-61 -4,-76 4,-20 2,-27 -7,-24 -14,5 -17,115 -3,135 17,25 23,11 14,-35 z m 2233,14 c -10,-9 -11,-8 -5,6 3,10 9,15 12,12 3,-3 0,-11 -7,-18 z m -71,-121 c 0,-2 -7,-7 -16,-10 -8,-3 -12,-2 -9,4 6,10 25,14 25,6 z m -817,-149 c -3,-6 -1,-7 4,-4 12,7 75,-48 65,-57 -3,-3 -1,-6 4,-6 14,0 69,-51 66,-62 -1,-5 2,-7 7,-4 5,4 18,-5 29,-19 11,-14 25,-25 32,-25 6,0 9,-4 6,-9 -3,-5 8,-14 24,-21 30,-12 44,-35 15,-24 -8,4 -15,1 -15,-6 0,-6 5,-8 10,-5 6,3 11,-6 11,-22 l 2,-28 4,26 c 4,26 7,27 61,25 31,-1 70,1 86,6 17,4 34,4 41,-2 8,-7 12,-5 12,5 0,8 -5,11 -10,8 -6,-3 -7,-1 -3,5 3,6 30,18 59,28 28,9 64,23 80,31 34,17 36,2 7,-42 -11,-16 -22,-50 -25,-75 -13,-102 -16,-114 -26,-99 -7,11 -9,9 -9,-8 0,-12 4,-23 9,-25 5,-1 11,-64 12,-139 2,-76 7,-135 12,-132 6,3 9,-20 6,-43 0,-4 4,-10 9,-13 23,-15 22,-48 -3,-71 -14,-13 -25,-29 -25,-36 0,-7 -5,-16 -12,-20 -8,-5 -9,-2 -5,10 4,9 3,15 -2,12 -5,-3 -11,-17 -13,-31 -4,-19 0,-29 14,-36 18,-10 19,-9 8,13 l -12,23 20,-20 c 11,-11 37,-51 58,-90 34,-65 48,-89 100,-170 10,-16 19,-37 19,-45 0,-8 5,-15 10,-16 19,-2 45,-16 45,-26 0,-14 43,-54 78,-72 22,-12 30,-21 26,-34 -5,-13 -4,-14 4,-4 13,19 43,-1 63,-43 l 15,-33 -48,-5 c -27,-4 -73,-14 -102,-23 l -54,-17 -7,-101 c -5,-75 -9,-96 -17,-82 -6,10 -11,40 -12,66 0,27 -5,48 -10,47 -13,-3 -47,113 -40,137 4,15 3,17 -4,7 -7,-10 -13,-5 -22,23 -6,19 -9,40 -5,46 3,5 2,10 -3,10 -9,0 -64,164 -116,340 -21,71 -56,233 -51,238 2,2 12,-1 23,-7 15,-8 21,-7 25,3 5,11 -3,14 -35,11 -22,-2 -42,-6 -45,-9 -3,-3 2,-39 11,-82 8,-42 13,-82 9,-87 -3,-6 -1,-7 4,-4 6,4 13,-3 16,-15 6,-22 -9,-41 -25,-32 -4,3 -5,-2 -1,-11 5,-13 7,-14 14,-3 15,22 27,-9 33,-87 14,-176 16,-225 7,-225 -5,0 -12,6 -14,13 -4,9 -6,9 -6,-1 -1,-8 7,-16 17,-19 16,-4 22,-29 41,-156 12,-84 25,-165 27,-182 l 5,-30 -15,30 c -29,58 -56,135 -46,135 6,0 10,5 10,11 0,6 -6,9 -13,6 -9,-3 -28,32 -62,116 -26,67 -58,145 -70,172 -74,168 -105,247 -195,500 -17,50 -36,99 -41,110 -5,11 -27,79 -49,150 -59,186 -68,202 -168,284 -39,33 -48,57 -17,45 8,-4 13,-10 10,-14 -3,-4 2,-13 10,-20 10,-9 15,-9 15,-1 0,6 -6,11 -12,11 -9,0 -8,3 2,9 8,6 17,8 20,6 4,-2 7,2 7,9 0,14 -53,16 -75,2 -7,-4 -20,-2 -29,5 -20,17 -13,106 13,166 l 19,43 52,-52 c 29,-28 49,-56 46,-61 z m 737,-11 c 0,-2 -6,-9 -14,-15 -11,-9 -16,-9 -22,0 -4,7 -3,9 4,5 6,-3 13,-2 17,4 6,10 15,14 15,6 z m -27,-427 c 32,-32 97,-124 97,-137 0,-4 -12,-15 -28,-24 -15,-9 -49,-35 -75,-58 -26,-23 -47,-38 -47,-33 0,5 6,15 13,22 6,8 7,11 1,8 -16,-9 -24,49 -23,183 0,110 1,114 17,91 9,-13 29,-37 45,-52 z m -1733,-65 c 0,-8 -7,-14 -15,-14 -15,0 -21,21 -9,33 10,9 24,-2 24,-19 z m 56,-310 c -7,-18 -45,-18 -68,0 -24,18 -23,24 5,19 12,-2 31,3 42,11 18,13 20,13 23,0 2,-8 1,-22 -2,-30 z"
       id="path2"
       style="fill:#ffffff" />
    <path
       d="m 3300,6991 c 0,-5 5,-13 10,-16 6,-3 10,-2 10,4 0,5 -4,13 -10,16 -5,3 -10,2 -10,-4 z"
       id="path4"
       style="fill:#ffffff" />
    <path
       d="m 3660,7071 c 0,-5 5,-13 10,-16 6,-3 10,-2 10,4 0,5 -4,13 -10,16 -5,3 -10,2 -10,-4 z"
       id="path6"
       style="fill:#ffffff" />
    <path
       d="m 6425,3942 c -106,-65 -138,-229 -66,-340 47,-73 70,-91 127,-97 l 49,-5 -45,13 c -89,24 -115,60 -106,145 3,30 8,58 11,60 4,4 7,-2 19,-41 7,-24 75,-50 100,-39 19,10 18,11 -12,11 -48,1 -82,39 -82,91 0,30 6,47 25,65 53,54 115,11 115,-82 0,-35 3,-44 10,-33 6,8 7,32 4,54 -8,50 8,41 35,-19 33,-75 32,-126 -4,-180 -14,-20 -20,-35 -13,-33 23,7 62,100 66,157 5,67 -28,214 -55,243 -45,49 -124,63 -178,30 z"
       id="path8"
       style="fill:#ffffff" />
    <path
       d="m 6523,3181 c -29,-16 -75,-46 -102,-68 -27,-21 -57,-43 -66,-48 -16,-10 -16,-13 -2,-46 8,-20 21,-40 28,-44 12,-8 12,-6 -8,42 -5,12 51,51 160,113 l 57,32 73,-45 c 42,-27 79,-59 90,-78 10,-17 16,-33 15,-34 -2,-2 -43,16 -92,40 l -89,42 -57,-32 c -85,-48 -161,-100 -152,-103 4,-1 54,25 109,58 l 102,61 97,-45 c 54,-25 102,-43 106,-40 11,7 10,45 -2,81 -8,22 -34,43 -104,86 -51,31 -97,57 -102,57 -5,0 -33,-13 -61,-29 z m 232,-99 c -3,-3 -11,0 -18,7 -9,10 -8,11 6,5 10,-3 15,-9 12,-12 z"
       id="path10"
       style="fill:#ffffff" />
    <path
       d="m 4388,3487 c -64,-45 -132,-95 -150,-112 -40,-36 -132,-106 -173,-131 -16,-10 -101,-65 -188,-124 -88,-58 -173,-114 -191,-125 -55,-34 -137,-97 -133,-102 3,-2 49,26 103,63 107,73 300,202 459,308 55,37 137,97 182,134 45,38 117,92 159,120 42,29 71,52 63,52 -8,0 -67,-38 -131,-83 z"
       id="path12"
       style="fill:#ffffff" />
    <path
       d="m 3480,2560 c 0,-5 10,-15 23,-21 22,-12 22,-12 3,10 -21,23 -26,26 -26,11 z"
       id="path14"
       style="fill:#ffffff" />
    <path
       d="m 3395,2400 c 3,-5 8,-10 11,-10 2,0 4,5 4,10 0,6 -5,10 -11,10 -5,0 -7,-4 -4,-10 z"
       id="path16"
       style="fill:#ffffff" />
    <path
       d="m 3406,2287 c 3,-10 9,-15 12,-12 3,3 0,11 -7,18 -10,9 -11,8 -5,-6 z"
       id="path18"
       style="fill:#ffffff" />
    <path
       d="m 3050,1836 c 0,-8 5,-18 10,-21 16,-10 58,-99 53,-112 -3,-7 2,-13 10,-13 20,0 152,-67 167,-85 11,-13 8,-17 -19,-26 -17,-6 -31,-15 -31,-21 0,-6 8,-7 18,-3 64,26 123,37 179,33 68,-4 71,2 8,20 -29,8 -52,9 -79,1 -44,-12 -71,-5 -62,17 3,9 2,12 -5,9 -6,-4 -18,0 -27,8 -9,9 -41,27 -70,40 -45,21 -57,32 -79,78 -38,78 -73,114 -73,75 z"
       id="path20"
       style="fill:#ffffff" />
    <path
       d="m 3640,1293 c 0,-5 5,-15 10,-23 8,-12 10,-11 10,8 0,12 -4,22 -10,22 -5,0 -10,-3 -10,-7 z"
       id="path22"
       style="fill:#ffffff" />
    <path
       d="m 3598,1223 c 7,-3 16,-2 19,1 4,3 -2,6 -13,5 -11,0 -14,-3 -6,-6 z"
       id="path24"
       style="fill:#ffffff" />
    <path
       d="m 3596,1192 c -2,-4 -1,-14 5,-22 5,-9 9,-10 9,-3 0,7 9,9 23,6 25,-7 22,-1 -10,16 -12,6 -24,7 -27,3 z"
       id="path26"
       style="fill:#ffffff" />
    <path
       d="m 4641,1918 c -7,-11 -10,-23 -7,-26 3,-3 6,1 6,9 1,8 8,2 16,-13 8,-16 20,-28 26,-28 6,0 3,9 -7,20 -10,11 -15,23 -12,26 3,4 17,-7 31,-22 13,-16 27,-27 30,-24 3,3 -12,22 -33,42 -36,34 -38,35 -50,16 z"
       id="path28"
       style="fill:#ffffff" />
    <path
       d="m 4627,1864 c 3,-7 0,-14 -7,-14 -6,0 -8,-5 -4,-11 5,-8 9,-8 14,1 4,7 13,10 19,6 7,-4 9,-1 5,8 -3,8 -12,17 -19,20 -9,3 -12,0 -8,-10 z"
       id="path30"
       style="fill:#ffffff" />
    <path
       d="m 4747,1823 c -4,-3 2,-12 13,-20 11,-8 20,-21 20,-29 0,-8 8,-14 18,-13 10,0 12,3 5,6 -7,2 -13,9 -13,14 0,15 -36,50 -43,42 z"
       id="path32"
       style="fill:#ffffff" />
    <path
       d="m 4745,1770 c 3,-5 8,-10 11,-10 2,0 4,5 4,10 0,6 -5,10 -11,10 -5,0 -7,-4 -4,-10 z"
       id="path34"
       style="fill:#ffffff" />
    <path
       d="m 4822,1743 c 2,-13 -5,-19 -27,-21 -35,-4 -46,-18 -40,-51 5,-27 25,-53 25,-32 0,7 5,9 10,6 6,-3 10,-2 10,4 0,5 -4,13 -10,16 -5,3 -10,1 -10,-5 0,-6 -5,-8 -11,-5 -15,10 -6,16 33,22 41,6 68,20 68,35 0,6 -8,4 -18,-5 -10,-10 -27,-17 -38,-17 -17,0 -16,3 7,23 14,12 24,28 22,35 -7,19 -24,14 -21,-5 z"
       id="path36"
       style="fill:#ffffff" />
    <path
       d="m 4880,1690 c -11,-7 -11,-10 -2,-10 7,0 10,-4 7,-10 -3,-5 -2,-10 4,-10 5,0 9,9 8,20 -1,11 -1,20 -2,20 0,0 -7,-5 -15,-10 z"
       id="path38"
       style="fill:#ffffff" />
    <path
       d="m 5320,1659 c 0,-5 5,-7 10,-4 6,3 10,8 10,11 0,2 -4,4 -10,4 -5,0 -10,-5 -10,-11 z"
       id="path40"
       style="fill:#ffffff" />
    <path
       d="m 5255,1645 c -22,-7 -33,-13 -25,-14 13,-1 13,-2 0,-11 -9,-6 -10,-10 -3,-10 6,0 20,-3 30,-6 15,-5 15,-4 3,5 -13,9 -12,11 5,12 20,0 20,0 0,8 -17,7 -16,8 8,13 21,4 27,2 23,-8 -3,-8 1,-14 9,-14 18,0 19,14 3,27 -9,7 -26,6 -53,-2 z"
       id="path42"
       style="fill:#ffffff" />
    <path
       d="m 4889,1641 c 11,-7 11,-9 0,-14 -10,-4 -9,-6 4,-6 9,-1 17,-6 17,-12 0,-5 -4,-8 -9,-4 -5,3 -13,0 -17,-6 -5,-8 -3,-9 6,-4 10,6 11,1 6,-21 -6,-23 -5,-26 5,-17 6,6 13,30 15,52 2,36 0,41 -19,41 -16,0 -18,-3 -8,-9 z"
       id="path44"
       style="fill:#ffffff" />
    <path
       d="m 4944,1551 c 6,-77 17,-152 41,-294 8,-43 12,-84 8,-92 -3,-8 -1,-15 5,-15 12,0 24,-68 25,-147 1,-53 4,-63 18,-63 21,0 33,31 24,60 -3,11 -2,20 3,20 6,0 17,21 26,47 19,55 19,53 7,53 -5,0 -12,-18 -16,-40 -4,-22 -10,-40 -13,-40 -21,0 -52,145 -87,399 -12,92 -13,117 -3,129 10,12 10,16 1,19 -7,3 -13,13 -13,22 0,10 -7,18 -16,18 -14,0 -15,-11 -10,-76 z m 106,-581 c 0,-5 -5,-10 -11,-10 -5,0 -7,5 -4,10 3,6 8,10 11,10 2,0 4,-4 4,-10 z"
       id="path46"
       style="fill:#ffffff" />
    <path
       d="m 5283,1593 c 0,-9 4,-10 14,-2 7,6 13,12 13,14 0,1 -6,2 -13,2 -8,0 -14,-6 -14,-14 z"
       id="path48"
       style="fill:#ffffff" />
    <path
       d="m 4811,1592 c 0,-7 4,-22 11,-35 24,-48 27,-55 21,-78 -4,-19 -2,-21 6,-9 14,21 28,3 14,-19 -10,-16 -9,-19 5,-16 9,2 20,4 25,4 4,1 7,6 7,12 0,5 -4,8 -9,5 -5,-3 -11,2 -14,12 -2,9 -8,26 -12,37 -7,19 -7,19 7,2 13,-18 14,-17 14,2 0,11 -3,18 -7,15 -9,-5 -19,21 -20,54 l -1,27 -8,-25 -8,-25 -2,25 c -1,23 -2,23 -9,5 l -8,-20 -5,20 c -3,11 -6,14 -7,7 z m 49,-62 c 0,-5 -4,-10 -10,-10 -5,0 -10,5 -10,10 0,6 5,10 10,10 6,0 10,-4 10,-10 z"
       id="path50"
       style="fill:#ffffff" />
    <path
       d="m 4871,1564 c 0,-11 3,-14 6,-6 3,7 2,16 -1,19 -3,4 -6,-2 -5,-13 z"
       id="path52"
       style="fill:#ffffff" />
    <path
       d="m 5289,1558 c 0,-7 -2,-21 -4,-31 -2,-11 -1,-16 3,-13 8,9 14,56 7,56 -3,0 -5,-6 -6,-12 z"
       id="path54"
       style="fill:#ffffff" />
    <path
       d="m 4911,1532 c -6,-12 -11,-27 -11,-34 0,-7 7,0 15,16 9,16 13,31 11,33 -2,3 -9,-4 -15,-15 z"
       id="path56"
       style="fill:#ffffff" />
    <path
       d="m 4991,1534 c 0,-11 3,-14 6,-6 3,7 2,16 -1,19 -3,4 -6,-2 -5,-13 z"
       id="path58"
       style="fill:#ffffff" />
    <path
       d="m 5031,1504 c 0,-11 3,-14 6,-6 3,7 2,16 -1,19 -3,4 -6,-2 -5,-13 z"
       id="path60"
       style="fill:#ffffff" />
    <path
       d="m 5011,1490 c 0,-8 4,-22 9,-30 12,-18 12,-2 0,25 -6,13 -9,15 -9,5 z"
       id="path62"
       style="fill:#ffffff" />
    <path
       d="m 4921,1420 c -7,-30 -17,-62 -21,-70 -4,-8 -3,-26 2,-40 6,-15 12,-20 15,-12 3,7 -1,19 -7,27 -7,9 -8,15 -2,15 16,0 34,55 30,96 l -3,39 z"
       id="path64"
       style="fill:#ffffff" />
    <path
       d="m 5090,1359 v -81 l -30,4 c -25,4 -30,2 -24,-11 3,-9 9,-24 11,-33 6,-22 33,-24 33,-3 0,8 9,15 20,15 19,0 20,7 20,95 0,78 -3,95 -15,95 -12,0 -15,-16 -15,-81 z"
       id="path66"
       style="fill:#ffffff" />
    <path
       d="m 5012,1416 c 7,-8 15,-12 17,-11 5,6 -10,25 -20,25 -5,0 -4,-6 3,-14 z"
       id="path68"
       style="fill:#ffffff" />
    <path
       d="m 4860,1415 c 0,-5 5,-17 10,-25 5,-8 10,-10 10,-5 0,6 -5,17 -10,25 -5,8 -10,11 -10,5 z"
       id="path70"
       style="fill:#ffffff" />
    <path
       d="m 5006,1380 c 7,-28 12,-35 18,-29 2,2 -2,15 -10,29 l -15,25 z"
       id="path72"
       style="fill:#ffffff" />
    <path
       d="m 5283,1360 c 0,-25 2,-35 4,-22 2,12 2,32 0,45 -2,12 -4,2 -4,-23 z"
       id="path74"
       style="fill:#ffffff" />
    <path
       d="m 4937,1347 c -9,-25 -9,-29 3,-22 6,3 10,-3 10,-15 0,-12 -4,-18 -10,-15 -5,3 -10,-1 -10,-10 0,-9 -4,-14 -9,-11 -5,4 -7,-3 -4,-14 5,-19 7,-18 25,11 16,25 18,39 11,63 -7,26 -10,28 -16,13 z"
       id="path76"
       style="fill:#ffffff" />
    <path
       d="m 5023,1325 c -7,-8 -9,-16 -4,-19 5,-3 12,1 15,10 8,22 4,25 -11,9 z"
       id="path78"
       style="fill:#ffffff" />
    <path
       d="m 4957,1274 c -4,-4 -7,-14 -7,-23 0,-11 3,-12 11,-4 6,6 10,16 7,23 -2,6 -7,8 -11,4 z"
       id="path80"
       style="fill:#ffffff" />
    <path
       d="m 5200,1265 c 0,-11 11,-15 40,-15 29,0 40,4 40,15 0,11 -11,15 -40,15 -29,0 -40,-4 -40,-15 z"
       id="path82"
       style="fill:#ffffff" />
    <path
       d="m 4931,1214 c 0,-11 3,-14 6,-6 3,7 2,16 -1,19 -3,4 -6,-2 -5,-13 z"
       id="path84"
       style="fill:#ffffff" />
    <path
       d="m 5032,1210 c 0,-14 2,-19 5,-12 2,6 2,18 0,25 -3,6 -5,1 -5,-13 z"
       id="path86"
       style="fill:#ffffff" />
    <path
       d="m 4959,1214 c -1,-5 0,-13 1,-19 2,-5 6,-26 11,-45 7,-32 7,-31 5,12 -2,42 -14,78 -17,52 z"
       id="path88"
       style="fill:#ffffff" />
    <path
       d="m 5280,1155 c 0,-4 4,-15 10,-25 8,-14 4,-25 -20,-50 -25,-26 -26,-30 -8,-24 20,6 20,5 4,-17 -9,-13 -16,-30 -15,-39 0,-8 6,-2 13,14 9,19 15,24 18,15 4,-11 8,-11 19,-2 13,13 20,105 7,97 -4,-3 -8,2 -8,10 0,8 -4,18 -10,21 -5,3 -10,3 -10,0 z m 23,-87 c -2,-45 -3,-46 -13,-20 -5,12 -7,29 -4,37 10,26 19,16 17,-17 z"
       id="path90"
       style="fill:#ffffff" />
    <path
       d="m 4987,1113 c -4,-3 -7,-11 -7,-17 0,-6 5,-5 12,2 6,6 9,14 7,17 -3,3 -9,2 -12,-2 z"
       id="path92"
       style="fill:#ffffff" />
    <path
       d="m 5162,1089 c 6,-16 12,-28 14,-26 5,5 -13,57 -20,57 -3,0 0,-14 6,-31 z"
       id="path94"
       style="fill:#ffffff" />
    <path
       d="m 5120,1090 c 0,-10 -5,-30 -11,-43 -7,-16 -7,-33 0,-58 10,-34 10,-34 5,9 -5,33 -3,42 9,42 11,0 13,7 10,23 -6,21 -6,21 16,-3 l 21,-25 -17,38 c -18,40 -33,48 -33,17 z"
       id="path96"
       style="fill:#ffffff" />
    <path
       d="m 5325,1070 c -3,-5 -1,-10 4,-10 6,0 11,5 11,10 0,6 -2,10 -4,10 -3,0 -8,-4 -11,-10 z"
       id="path98"
       style="fill:#ffffff" />
    <path
       d="m 5000,1056 c 0,-8 4,-17 9,-20 5,-4 7,3 4,14 -6,23 -13,26 -13,6 z"
       id="path100"
       style="fill:#ffffff" />
    <path
       d="m 5000,1011 c 0,-6 4,-13 10,-16 6,-3 7,1 4,9 -7,18 -14,21 -14,7 z"
       id="path102"
       style="fill:#ffffff" />
    <path
       d="m 5180,976 c 0,-8 6,-16 14,-19 10,-4 12,0 9,14 -6,22 -23,26 -23,5 z"
       id="path104"
       style="fill:#ffffff" />
    <path
       d="m 5080,970 c 0,-5 5,-10 10,-10 6,0 10,5 10,10 0,6 -4,10 -10,10 -5,0 -10,-4 -10,-10 z"
       id="path106"
       style="fill:#ffffff" />
    <path
       d="m 5060,910 c 0,-5 5,-10 10,-10 6,0 10,5 10,10 0,6 -4,10 -10,10 -5,0 -10,-4 -10,-10 z"
       id="path108"
       style="fill:#ffffff" />
    <path
       d="m 5274,909 c -4,-8 -3,-9 4,-5 13,8 15,-2 13,-44 -2,-20 0,-22 8,-10 9,13 11,13 11,-2 0,-30 23,-68 39,-67 10,0 12,2 4,6 -7,2 -13,12 -12,21 0,11 2,12 6,4 5,-13 23,-7 23,9 0,6 -4,7 -10,4 -5,-3 -10,1 -10,9 0,9 -4,16 -10,16 -5,0 -7,-7 -4,-15 4,-8 1,-15 -5,-15 -6,0 -11,14 -11,31 0,20 4,28 12,23 7,-4 8,-3 4,5 -4,6 -12,8 -18,5 -6,-4 -8,2 -4,17 3,13 3,18 0,11 -4,-9 -9,-10 -19,-2 -10,8 -15,8 -21,-1 z"
       id="path110"
       style="fill:#ffffff" />
    <path
       d="m 5075,860 c -7,-22 2,-60 15,-60 4,0 10,10 13,23 2,12 8,31 12,42 4,12 -2,8 -15,-10 l -22,-30 6,28 c 7,31 0,37 -9,7 z"
       id="path112"
       style="fill:#ffffff" />
    <path
       d="m 5226,845 c -3,-8 -3,-23 -1,-32 3,-10 -2,-4 -10,12 -14,25 -15,26 -9,5 3,-14 9,-44 11,-67 8,-68 22,-50 20,27 0,39 -2,70 -3,70 -1,0 -4,-7 -8,-15 z"
       id="path114"
       style="fill:#ffffff" />
    <path
       d="m 5103,792 c -8,-5 -8,-13 1,-30 13,-23 13,-23 13,7 0,17 -1,31 -1,31 -1,0 -6,-4 -13,-8 z"
       id="path116"
       style="fill:#ffffff" />
    <path
       d="m 5140,780 c 0,-13 7,-20 20,-20 13,0 20,7 20,20 0,13 -7,20 -20,20 -13,0 -20,-7 -20,-20 z"
       id="path118"
       style="fill:#ffffff" />
    <path
       d="m 5310,784 c 0,-13 18,-39 24,-34 2,3 -2,14 -10,24 -8,11 -14,16 -14,10 z"
       id="path120"
       style="fill:#ffffff" />
    <path
       d="m 5387,763 c -12,-11 -8,-25 5,-17 7,5 9,2 5,-9 -4,-11 -2,-14 9,-10 12,4 12,8 2,22 -7,9 -13,17 -14,19 0,1 -4,-1 -7,-5 z"
       id="path122"
       style="fill:#ffffff" />
    <path
       d="m 5165,690 c 3,-5 8,-10 11,-10 2,0 4,5 4,10 0,6 -5,10 -11,10 -5,0 -7,-4 -4,-10 z"
       id="path124"
       style="fill:#ffffff" />
    <path
       d="m 5211,654 c 0,-11 3,-14 6,-6 3,7 2,16 -1,19 -3,4 -6,-2 -5,-13 z"
       id="path126"
       style="fill:#ffffff" />
    <path
       d="m 5241,654 c 0,-11 3,-14 6,-6 3,7 2,16 -1,19 -3,4 -6,-2 -5,-13 z"
       id="path128"
       style="fill:#ffffff" />
    <path
       d="m 5390,620 c 0,-5 5,-10 10,-10 6,0 10,5 10,10 0,6 -4,10 -10,10 -5,0 -10,-4 -10,-10 z"
       id="path130"
       style="fill:#ffffff" />
    <path
       d="m 5381,590 c 14,-31 19,-36 19,-24 0,6 -7,19 -16,30 -14,18 -14,18 -3,-6 z"
       id="path132"
       style="fill:#ffffff" />
    <path
       d="m 5423,593 c -15,-5 -17,-23 -4,-23 5,0 11,7 15,15 3,8 4,15 3,14 -1,0 -8,-3 -14,-6 z"
       id="path134"
       style="fill:#ffffff" />
    <path
       d="m 5410,540 c 0,-5 5,-10 10,-10 6,0 10,5 10,10 0,6 -4,10 -10,10 -5,0 -10,-4 -10,-10 z"
       id="path136"
       style="fill:#ffffff" />
    <path
       d="m 5558,508 c 5,-5 16,-8 23,-6 8,3 3,7 -10,11 -17,4 -21,3 -13,-5 z"
       id="path138"
       style="fill:#ffffff" />
    <path
       d="m 5228,493 c -3,-4 3,-16 14,-25 21,-21 24,-11 4,15 -8,10 -16,15 -18,10 z"
       id="path140"
       style="fill:#ffffff" />
    <path
       d="m 5595,490 c -3,-5 -1,-10 4,-10 6,0 11,5 11,10 0,6 -2,10 -4,10 -3,0 -8,-4 -11,-10 z"
       id="path142"
       style="fill:#ffffff" />
    <path
       d="m 5638,433 c 6,-2 18,-2 25,0 6,3 1,5 -13,5 -14,0 -19,-2 -12,-5 z"
       id="path144"
       style="fill:#ffffff" />
    <path
       d="m 5481,364 c 0,-11 3,-14 6,-6 3,7 2,16 -1,19 -3,4 -6,-2 -5,-13 z"
       id="path146"
       style="fill:#ffffff" />
    <path
       d="m 5400,1434 c 0,-8 5,-12 10,-9 6,4 8,11 5,16 -9,14 -15,11 -15,-7 z"
       id="path148"
       style="fill:#ffffff" />
    <path
       d="m 5406,1384 c -9,-24 -7,-28 9,-14 17,14 20,30 6,30 -5,0 -12,-7 -15,-16 z"
       id="path150"
       style="fill:#ffffff" />
    <path
       d="m 5436,1364 c -10,-26 -7,-40 5,-24 9,12 10,11 6,-7 -3,-15 -1,-20 9,-16 8,3 14,0 14,-6 0,-6 9,-11 20,-11 11,0 20,5 20,11 0,6 -6,9 -14,6 -20,-8 -28,4 -14,20 8,11 8,17 -2,26 -9,9 -11,9 -6,0 3,-6 2,-14 -4,-18 -5,-3 -10,1 -10,9 0,21 -17,29 -24,10 z"
       id="path152"
       style="fill:#ffffff" />
    <path
       d="m 5402,1284 c 1,-37 3,-43 8,-24 6,23 7,23 12,5 3,-11 3,-4 1,15 -7,55 -21,58 -21,4 z"
       id="path154"
       style="fill:#ffffff" />
    <path
       d="m 5516,1292 c -3,-6 0,-13 6,-16 19,-9 -34,0 -56,9 -14,6 -17,5 -12,-3 4,-7 3,-12 -2,-12 -5,0 -9,-6 -10,-12 -1,-7 -4,-26 -8,-43 l -7,-30 31,29 c 28,27 29,31 14,43 -15,11 -15,12 -1,13 8,0 20,-5 25,-10 15,-15 46,11 35,29 -5,8 -11,9 -15,3 z m -46,-51 c 0,-5 -7,-11 -14,-14 -10,-4 -13,-1 -9,9 6,15 23,19 23,5 z"
       id="path156"
       style="fill:#ffffff" />
    <path
       d="m 5411,1214 c 0,-11 3,-14 6,-6 3,7 2,16 -1,19 -3,4 -6,-2 -5,-13 z"
       id="path158"
       style="fill:#ffffff" />
    <path
       d="m 3359,9322 c 30,-27 77,-61 105,-76 28,-15 42,-21 32,-14 -11,7 -58,41 -105,76 -81,59 -83,60 -32,14 z"
       id="path160"
       style="fill:#ffffff" />
    <path
       d="m 3205,9073 c -64,-16 -209,-93 -211,-113 -3,-23 -5,-24 -15,-10 -9,13 -10,13 -6,0 2,-8 -2,-29 -10,-47 -7,-18 -13,-45 -13,-60 0,-23 2,-25 13,-13 7,8 21,41 32,73 12,39 28,65 47,78 39,28 154,79 177,79 11,0 23,5 26,10 6,10 -6,11 -40,3 z"
       id="path162"
       style="fill:#ffffff" />
    <path
       d="m 4482,9059 c 15,-11 57,-63 94,-115 36,-53 68,-93 71,-90 8,8 -125,204 -147,216 -33,18 -46,10 -18,-11 z"
       id="path164"
       style="fill:#ffffff" />
    <path
       d="m 3736,9030 c 3,-14 11,-32 16,-40 6,-10 7,-7 2,10 -3,14 -11,32 -16,40 -6,10 -7,7 -2,-10 z"
       id="path166"
       style="fill:#ffffff" />
    <path
       d="m 4416,8958 c -21,-34 -84,-198 -91,-239 -7,-37 2,-50 61,-85 16,-9 15,-14 -14,-56 -27,-40 -32,-56 -32,-106 0,-54 2,-60 27,-71 31,-14 43,-6 59,41 10,32 15,36 68,60 21,10 35,29 52,72 27,68 27,66 15,66 -4,0 -20,-27 -34,-60 -22,-51 -32,-62 -65,-76 -37,-14 -62,-46 -62,-79 0,-8 -2,-15 -4,-15 -47,0 -51,86 -6,157 17,26 30,53 30,60 0,7 -16,21 -35,30 -19,9 -36,23 -38,32 -4,22 39,61 69,61 33,0 104,-23 104,-33 0,-5 -14,-22 -30,-39 -34,-33 -34,-46 0,-28 16,9 25,8 38,-2 15,-11 15,-11 6,2 -7,9 -8,23 -3,35 16,40 10,51 -38,68 -60,22 -101,22 -125,0 -24,-21 -24,-4 -1,55 15,39 18,42 25,23 8,-24 46,-41 86,-40 24,0 25,1 7,9 -11,5 -33,11 -49,15 -28,6 -28,7 -24,61 3,33 11,62 21,72 16,15 19,15 44,-4 48,-35 93,-111 93,-157 0,-54 9,-42 11,15 2,36 -4,54 -29,91 -30,43 -86,87 -110,87 -7,0 -18,-10 -26,-22 z"
       id="path168"
       style="fill:#ffffff" />
    <path
       d="m 4930,8836 c 0,-11 173,-377 176,-373 4,4 -161,366 -171,375 -3,3 -5,2 -5,-2 z"
       id="path170"
       style="fill:#ffffff" />
    <path
       d="m 4529,8813 c -13,-16 -12,-17 4,-4 9,7 17,15 17,17 0,8 -8,3 -21,-13 z"
       id="path172"
       style="fill:#ffffff" />
    <path
       d="m 3269,8733 c -13,-16 -12,-17 4,-4 9,7 17,15 17,17 0,8 -8,3 -21,-13 z"
       id="path174"
       style="fill:#ffffff" />
    <path
       d="m 4373,8475 c 0,-8 4,-12 9,-9 5,3 6,10 3,15 -9,13 -12,11 -12,-6 z"
       id="path176"
       style="fill:#ffffff" />
    <path
       d="m 5111,8445 c 0,-5 11,-30 24,-55 13,-25 24,-40 24,-35 0,6 -11,30 -24,55 -13,25 -24,41 -24,35 z"
       id="path178"
       style="fill:#ffffff" />
    <path
       d="m 5181,8295 c 0,-5 6,-21 14,-35 8,-14 14,-20 14,-15 0,6 -6,21 -14,35 -8,14 -14,21 -14,15 z"
       id="path180"
       style="fill:#ffffff" />
    <path
       d="m 5211,8225 c 0,-5 11,-30 24,-55 13,-25 24,-40 24,-35 0,6 -11,30 -24,55 -13,25 -24,41 -24,35 z"
       id="path182"
       style="fill:#ffffff" />
    <path
       d="m 5261,8115 c 0,-5 11,-30 24,-55 13,-25 24,-40 24,-35 0,6 -11,30 -24,55 -13,25 -24,41 -24,35 z"
       id="path184"
       style="fill:#ffffff" />
    <path
       d="m 4951,8076 c -2,-44 36,-260 65,-366 29,-106 92,-282 136,-380 58,-129 260,-526 279,-549 34,-42 31,-16 -7,45 -58,95 -259,509 -307,634 -68,174 -121,377 -160,620 -4,23 -4,23 -6,-4 z"
       id="path186"
       style="fill:#ffffff" />
    <path
       d="m 4379,7993 c -13,-16 -12,-17 4,-4 9,7 17,15 17,17 0,8 -8,3 -21,-13 z"
       id="path188"
       style="fill:#ffffff" />
    <path
       d="m 5315,7996 c 11,-37 88,-206 91,-203 5,4 -67,175 -85,202 -12,19 -12,19 -6,1 z"
       id="path190"
       style="fill:#ffffff" />
    <path
       d="m 3422,7967 c -13,-15 -77,-45 -180,-82 -65,-24 -159,-88 -200,-135 -12,-13 -12,-13 -6,0 4,8 -5,4 -19,-9 -15,-14 -27,-27 -27,-29 0,-3 9,3 20,13 11,10 20,13 20,7 0,-6 -5,-14 -10,-17 -30,-18 -73,-166 -52,-179 4,-2 34,-7 65,-10 41,-4 59,-2 61,7 23,80 43,111 118,186 45,45 85,81 89,81 3,0 12,-7 19,-15 7,-8 17,-15 23,-15 15,0 36,32 37,57 0,12 12,31 27,43 43,33 64,70 52,92 -11,21 -23,23 -37,5 z m -2,-45 c 0,-5 -11,-14 -24,-20 -18,-8 -25,-21 -30,-61 -4,-27 -10,-52 -15,-55 -4,-3 -18,6 -29,19 -12,14 -28,25 -36,25 -20,0 -119,-79 -161,-130 -54,-65 -67,-94 -55,-126 10,-25 9,-26 -12,-20 -13,3 -28,6 -34,6 -21,0 -26,67 -8,106 23,48 97,123 164,168 41,27 190,87 238,96 1,0 2,-4 2,-8 z"
       id="path192"
       style="fill:#ffffff" />
    <path
       d="m 5411,7775 c 0,-5 6,-21 14,-35 8,-14 14,-20 14,-15 0,6 -6,21 -14,35 -8,14 -14,21 -14,15 z"
       id="path194"
       style="fill:#ffffff" />
    <path
       d="m 4407,7710 c -4,-30 -6,-107 -5,-170 l 1,-115 8,160 c 9,166 7,220 -4,125 z"
       id="path196"
       style="fill:#ffffff" />
    <path
       d="m 5450,7681 c 0,-6 4,-13 10,-16 6,-3 7,1 4,9 -7,18 -14,21 -14,7 z"
       id="path198"
       style="fill:#ffffff" />
    <path
       d="m 2333,7595 c 0,-22 2,-30 4,-17 2,12 2,30 0,40 -3,9 -5,-1 -4,-23 z"
       id="path200"
       style="fill:#ffffff" />
    <path
       d="m 5481,7615 c 0,-5 6,-21 14,-35 8,-14 14,-20 14,-15 0,6 -6,21 -14,35 -8,14 -14,21 -14,15 z"
       id="path202"
       style="fill:#ffffff" />
    <path
       d="m 2346,7435 c 3,-55 12,-174 21,-265 16,-173 13,-386 -8,-579 -12,-113 -47,-313 -60,-348 -5,-13 -9,-34 -9,-46 1,-38 23,23 73,203 54,195 79,323 75,382 l -4,43 -7,-40 c -47,-258 -64,-338 -66,-304 -1,9 3,38 8,65 31,162 35,495 8,694 -10,74 -22,171 -27,215 l -9,80 z"
       id="path204"
       style="fill:#ffffff" />
    <path
       d="m 5259,7372 c 5,-10 18,-25 28,-33 12,-10 11,-5 -6,19 -24,35 -38,43 -22,14 z"
       id="path206"
       style="fill:#ffffff" />
    <path
       d="m 4362,7038 c -21,-178 -24,-213 -14,-203 9,10 37,283 29,291 -2,3 -9,-37 -15,-88 z"
       id="path208"
       style="fill:#ffffff" />
    <path
       d="m 4343,6740 c 0,-36 2,-50 4,-32 2,17 2,47 0,65 -2,17 -4,3 -4,-33 z"
       id="path210"
       style="fill:#ffffff" />
    <path
       d="m 4156,6559 c -18,-77 -54,-144 -57,-104 -1,16 -2,16 -8,-5 -6,-20 -17,-27 -58,-36 -84,-19 -139,-51 -194,-115 -67,-78 -46,-76 33,4 54,54 73,66 135,86 40,12 75,27 78,32 4,5 10,7 15,4 15,-9 58,67 70,126 19,86 6,93 -14,8 z"
       id="path212"
       style="fill:#ffffff" />
    <path
       d="m 4360,6592 c 0,-20 50,-42 92,-41 32,2 35,3 13,6 -54,6 -73,13 -89,29 -9,8 -16,11 -16,6 z"
       id="path214"
       style="fill:#ffffff" />
    <path
       d="m 4191,6456 c -30,-30 -69,-62 -87,-72 -32,-17 -44,-34 -26,-34 21,0 143,106 163,143 15,27 7,21 -50,-37 z"
       id="path216"
       style="fill:#ffffff" />
    <path
       d="m 5136,6432 c -2,-4 -1,-14 3,-21 6,-10 10,-9 14,3 6,16 -8,32 -17,18 z"
       id="path218"
       style="fill:#ffffff" />
    <path
       d="m 5111,6393 c -7,-8 -11,-16 -8,-19 2,-2 10,2 17,11 17,20 9,27 -9,8 z"
       id="path220"
       style="fill:#ffffff" />
    <path
       d="m 3905,6284 c -129,-89 -181,-117 -197,-108 -6,4 -8,3 -4,-4 6,-9 -69,-77 -85,-77 -4,0 -11,-4 -16,-9 -5,-5 -3,-6 5,-2 23,14 12,-6 -32,-55 -85,-95 -162,-274 -188,-439 -11,-73 -17,-87 -56,-132 -81,-95 -114,-150 -168,-282 -30,-74 -33,-78 -40,-52 -12,50 4,217 30,314 55,198 138,335 333,544 35,37 63,70 63,73 0,10 -83,-61 -105,-90 -11,-14 -40,-48 -65,-76 -151,-171 -237,-353 -280,-589 -9,-51 -5,-146 10,-200 5,-19 9,-73 9,-120 0,-47 4,-107 10,-133 l 11,-48 -67,-75 c -36,-41 -69,-74 -73,-74 -12,0 -50,-37 -50,-48 0,-7 10,-8 33,-1 28,8 200,39 219,39 4,0 26,-26 50,-57 23,-32 90,-106 148,-164 150,-152 241,-206 426,-253 131,-33 101,-9 -47,37 -224,71 -413,234 -543,468 -52,95 -77,200 -79,339 l -2,116 62,124 c 35,69 82,147 105,173 l 43,49 -1,-244 c 0,-186 -6,-286 -23,-427 -12,-101 -24,-188 -27,-192 -2,-4 0,-10 5,-13 11,-7 37,21 50,54 9,24 10,24 10,3 1,-37 23,-72 52,-85 15,-7 25,-16 23,-20 -3,-4 2,-8 10,-8 9,0 16,3 17,8 6,79 9,106 18,138 6,21 9,40 6,42 -7,7 -32,-62 -39,-110 -5,-36 -11,-46 -22,-41 -26,10 -44,60 -44,124 0,68 -6,69 -32,6 l -17,-42 5,85 c 3,47 13,110 21,140 12,45 14,94 8,280 -10,326 20,522 109,715 47,101 156,214 304,313 147,98 152,102 193,134 61,49 26,30 -86,-48 z M 3165,4659 c -16,-4 -49,-9 -72,-12 l -42,-5 44,55 c 25,30 45,60 46,66 0,7 13,-13 27,-43 l 28,-55 z"
       id="path222"
       style="fill:#ffffff" />
    <path
       d="m 3590,6316 c 0,-8 97,-66 109,-66 7,0 -10,16 -39,35 -47,32 -70,42 -70,31 z"
       id="path224"
       style="fill:#ffffff" />
    <path
       d="m 3943,6196 c -15,-12 -66,-50 -113,-84 -47,-33 -98,-75 -115,-93 -16,-18 8,-2 53,34 46,37 88,67 93,67 12,0 11,-17 -1,-25 -6,-4 -51,-60 -100,-125 -49,-65 -94,-121 -100,-125 -13,-8 -87,-117 -122,-180 -30,-55 -35,-46 -14,30 19,72 58,153 100,214 21,29 33,50 27,47 -22,-14 -89,-123 -115,-188 -55,-139 -82,-346 -56,-438 5,-19 12,-96 14,-171 8,-209 24,-216 22,-9 -1,114 4,196 12,235 43,190 143,436 223,545 19,25 50,70 70,101 20,30 64,85 99,122 64,69 73,85 23,43 z m -312,-445 c -32,-69 -46,-88 -73,-102 -19,-10 -19,-9 -2,23 25,48 95,150 100,145 3,-2 -9,-32 -25,-66 z m -51,-130 c -16,-31 -46,-127 -59,-193 -19,-87 -31,-81 -31,17 0,100 14,141 61,178 38,29 46,29 29,-2 z"
       id="path226"
       style="fill:#ffffff" />
    <path
       d="m 3486,6065 c -9,-26 -7,-32 5,-12 6,10 9,21 6,23 -2,3 -7,-2 -11,-11 z"
       id="path228"
       style="fill:#ffffff" />
    <path
       d="m 3569,6063 c -13,-16 -12,-17 4,-4 16,13 21,21 13,21 -2,0 -10,-8 -17,-17 z"
       id="path230"
       style="fill:#ffffff" />
    <path
       d="m 6385,5538 c -4,-135 -5,-252 -2,-259 3,-8 6,9 7,36 0,28 5,137 10,244 5,107 5,201 1,209 -5,9 -12,-91 -16,-230 z"
       id="path232"
       style="fill:#ffffff" />
    <path
       d="m 3708,5378 c -1,-46 -3,-103 -3,-128 -1,-25 2,-97 6,-160 5,-63 4,-131 -1,-150 -9,-37 -25,-134 -36,-212 -3,-26 -10,-45 -15,-42 -5,3 -9,-13 -9,-36 0,-62 23,-46 36,26 7,32 18,106 24,164 l 13,105 13,-40 c 46,-143 70,-200 85,-203 13,-2 12,7 -7,66 -52,154 -64,379 -33,590 14,97 5,103 -15,10 -13,-63 -19,-133 -27,-313 -2,-37 -2,-36 -9,15 -5,30 -7,130 -5,223 2,93 -1,167 -6,167 -5,0 -10,-37 -11,-82 z m 39,-390 c -3,-8 -6,-5 -6,6 -1,11 2,17 5,13 3,-3 4,-12 1,-19 z"
       id="path234"
       style="fill:#ffffff" />
    <path
       d="m 6391,5244 c 0,-11 3,-14 6,-6 3,7 2,16 -1,19 -3,4 -6,-2 -5,-13 z"
       id="path236"
       style="fill:#ffffff" />
    <path
       d="m 6406,5165 c 3,-27 12,-84 21,-125 8,-41 21,-111 28,-155 7,-44 13,-68 14,-53 1,32 -45,311 -59,353 -8,25 -9,22 -4,-20 z"
       id="path238"
       style="fill:#ffffff" />
    <path
       d="m 1612,4890 c 0,-14 2,-19 5,-12 2,6 2,18 0,25 -3,6 -5,1 -5,-13 z"
       id="path240"
       style="fill:#ffffff" />
    <path
       d="m 3628,4746 c -7,-76 -39,-142 -74,-149 -24,-4 -24,-3 -25,77 -1,73 -2,77 -10,36 -14,-81 -11,-137 8,-144 45,-18 123,100 123,185 0,72 -17,68 -22,-5 z"
       id="path242"
       style="fill:#ffffff" />
    <path
       d="m 4710,4256 c -118,-68 -295,-113 -515,-132 -75,-6 -85,-9 -60,-16 56,-17 278,14 420,59 88,27 217,91 223,111 5,18 -7,14 -68,-22 z"
       id="path244"
       style="fill:#ffffff" />
  </g>
</svg>
